<!DOCTYPE svg PUBLIC "-//W3C//DTD SVG 1.1//EN" "http://www.w3.org/Graphics/SVG/1.1/DTD/svg11.dtd">
<!-- Uploaded to: SVG Repo, www.svgrepo.com, Transformed by: SVG Repo Mixer Tools -->
<svg width="203px" height="203px" viewBox="0 0 24.00 24.00" fill="none" xmlns="http://www.w3.org/2000/svg">
<g id="SVGRepo_bgCarrier" stroke-width="0"/>
<g id="SVGRepo_tracerCarrier" stroke-linecap="round" stroke-linejoin="round"/>
<g id="SVGRepo_iconCarrier"> <path d="M20.5 15V10C20.5 7.17157 20.5 5.75736 19.6213 4.87868C18.7426 4 17.3284 4 14.5 4H9.5C6.67157 4 5.25736 4 4.37868 4.87868C3.5 5.75736 3.5 7.17157 3.5 10V15" stroke="rgb(246, 246, 246)" stroke-width="0.8640000000000001"/> <path d="M5 20H19C20.6569 20 22 18.6569 22 17V16C22 15.4477 21.5523 15 21 15H16.6667C16.2339 15 15.8129 15.1404 15.4667 15.4L14.5333 16.1C14.1871 16.3596 13.7661 16.5 13.3333 16.5H10.6667C10.2339 16.5 9.81286 16.3596 9.46667 16.1L8.53333 15.4C8.18714 15.1404 7.76607 15 7.33333 15H3C2.44772 15 2 15.4477 2 16V17C2 18.6569 3.34315 20 5 20Z" stroke="rgb(246, 246, 246)" stroke-width="0.8640000000000001" stroke-linecap="round"/> </g>
</svg>